<svg width="800" height="520" viewBox="0 0 800 520" xmlns="http://www.w3.org/2000/svg">
  <rect width="800" height="520" rx="36" fill="#f3f8ff"/>
  <rect x="60" y="70" width="680" height="380" rx="28" fill="url(#bg)"/>
  <circle cx="650" cy="140" r="92" fill="#ffe7a3" opacity="0.9"/>
  <path d="M180 360h440" stroke="#1f3d7a" stroke-width="12" stroke-linecap="round"/>
  <rect x="210" y="230" width="140" height="120" rx="18" fill="#0f5fb6"/>
  <rect x="255" y="210" width="100" height="140" rx="16" fill="#2c7be5"/>
  <rect x="450" y="220" width="140" height="132" rx="18" fill="#0f5fb6"/>
  <rect x="490" y="200" width="100" height="152" rx="16" fill="#2c7be5"/>
  <circle cx="260" cy="275" r="24" fill="#fff"/>
  <circle cx="530" cy="275" r="24" fill="#fff"/>
  <path d="M220 155c20-36 48-58 86-58 40 0 72 25 92 70" stroke="#0f172a" stroke-width="12" stroke-linecap="round" fill="none"/>
  <path d="M470 150c22-38 50-60 92-60 40 0 78 28 100 80" stroke="#0f172a" stroke-width="12" stroke-linecap="round" fill="none"/>
  <path d="M190 400c70-56 130-76 240-76 110 0 180 24 250 80" stroke="#6dd3ff" stroke-width="18" stroke-linecap="round" fill="none"/>
  <defs>
    <linearGradient id="bg" x1="0%" y1="0%" x2="100%" y2="100%">
      <stop offset="0%" stop-color="#07264d"/>
      <stop offset="100%" stop-color="#1f7fe0"/>
    </linearGradient>
  </defs>
</svg>