<svg width="800" height="520" viewBox="0 0 800 520" xmlns="http://www.w3.org/2000/svg">
  <rect width="800" height="520" rx="36" fill="#f8fbff"/>
  <rect x="110" y="90" width="580" height="340" rx="30" fill="url(#panel)"/>
  <rect x="180" y="160" width="260" height="180" rx="24" fill="#0f172a"/>
  <rect x="220" y="200" width="180" height="100" rx="16" fill="#dcefff"/>
  <rect x="420" y="180" width="168" height="200" rx="24" fill="#ffffff" opacity="0.95"/>
  <rect x="440" y="205" width="128" height="150" rx="14" fill="#0071c5"/>
  <circle cx="504" cy="280" r="46" fill="#6dd3ff" opacity="0.9"/>
  <path d="M300 220h52" stroke="#0f172a" stroke-width="8" stroke-linecap="round"/>
  <path d="M300 250h42" stroke="#0f172a" stroke-width="8" stroke-linecap="round"/>
  <path d="M300 280h36" stroke="#0f172a" stroke-width="8" stroke-linecap="round"/>
  <path d="M250 370c82-42 138-42 230 0" stroke="#7ed957" stroke-width="14" stroke-linecap="round"/>
  <path d="M220 120c42-44 88-66 144-66" stroke="#1f3d7a" stroke-width="12" stroke-linecap="round"/>
  <defs>
    <linearGradient id="panel" x1="0%" y1="0%" x2="100%" y2="100%">
      <stop offset="0%" stop-color="#0d3f7a"/>
      <stop offset="100%" stop-color="#2b7fe3"/>
    </linearGradient>
  </defs>
</svg>