<svg width="800" height="520" viewBox="0 0 800 520" xmlns="http://www.w3.org/2000/svg">
  <rect width="800" height="520" rx="36" fill="#f7fbff"/>
  <rect x="110" y="90" width="580" height="340" rx="32" fill="#e9f5ff"/>
  <rect x="180" y="260" width="180" height="106" rx="20" fill="#0f5fb6"/>
  <rect x="430" y="240" width="160" height="126" rx="20" fill="#2d7fe3"/>
  <path d="M230 240c22-42 50-64 98-70" stroke="#1f3d7a" stroke-width="12" stroke-linecap="round"/>
  <path d="M470 220c30-50 64-72 112-72" stroke="#1f3d7a" stroke-width="12" stroke-linecap="round"/>
  <path d="M206 312c48-24 86-24 124 0" stroke="#dff6ff" stroke-width="10" stroke-linecap="round"/>
  <path d="M412 292c44-26 90-26 136 0" stroke="#dff6ff" stroke-width="10" stroke-linecap="round"/>
  <path d="M320 174c20-36 52-56 96-60" stroke="#ffb703" stroke-width="14" stroke-linecap="round"/>
  <path d="M284 178c0 28-24 60-56 82" stroke="#ff6b6b" stroke-width="10" stroke-linecap="round"/>
  <path d="M568 382c-48-24-102-36-158-34" stroke="#6dd3ff" stroke-width="14" stroke-linecap="round"/>
</svg>